<mxfile host="app.diagrams.net" modified="2022-01-04T02:30:33.546Z" agent="5.0 (Macintosh; Intel Mac OS X 10_15_7) AppleWebKit/537.36 (KHTML, like Gecko) Chrome/96.0.4664.110 Safari/537.36" etag="u0YerrCbi1mikgpPJ-Bn" version="15.9.4" type="github">
  <diagram id="iynTV9C4eza_6aaqcb6Q" name="第 1 页">
    <mxGraphModel dx="1306" dy="721" grid="1" gridSize="10" guides="1" tooltips="1" connect="1" arrows="1" fold="1" page="1" pageScale="1" pageWidth="827" pageHeight="1169" math="0" shadow="0">
      <root>
        <mxCell id="0" />
        <mxCell id="1" parent="0" />
        <mxCell id="B3fBioXZxfCSzkXcN0d9-6" style="edgeStyle=orthogonalEdgeStyle;rounded=0;orthogonalLoop=1;jettySize=auto;html=1;exitX=0.5;exitY=1;exitDx=0;exitDy=0;entryX=0.5;entryY=0;entryDx=0;entryDy=0;" edge="1" parent="1" source="B3fBioXZxfCSzkXcN0d9-1" target="B3fBioXZxfCSzkXcN0d9-5">
          <mxGeometry relative="1" as="geometry" />
        </mxCell>
        <mxCell id="B3fBioXZxfCSzkXcN0d9-1" value="Coding-git" style="rounded=1;whiteSpace=wrap;html=1;" vertex="1" parent="1">
          <mxGeometry x="320" y="130" width="120" height="60" as="geometry" />
        </mxCell>
        <mxCell id="B3fBioXZxfCSzkXcN0d9-3" style="edgeStyle=orthogonalEdgeStyle;rounded=0;orthogonalLoop=1;jettySize=auto;html=1;exitX=0.5;exitY=1;exitDx=0;exitDy=0;entryX=0.5;entryY=0;entryDx=0;entryDy=0;" edge="1" parent="1" source="B3fBioXZxfCSzkXcN0d9-2" target="B3fBioXZxfCSzkXcN0d9-1">
          <mxGeometry relative="1" as="geometry" />
        </mxCell>
        <mxCell id="B3fBioXZxfCSzkXcN0d9-2" value="Push" style="rounded=1;whiteSpace=wrap;html=1;" vertex="1" parent="1">
          <mxGeometry x="320" y="30" width="120" height="60" as="geometry" />
        </mxCell>
        <mxCell id="B3fBioXZxfCSzkXcN0d9-8" style="edgeStyle=orthogonalEdgeStyle;rounded=0;orthogonalLoop=1;jettySize=auto;html=1;exitX=1;exitY=0.5;exitDx=0;exitDy=0;entryX=0;entryY=0.5;entryDx=0;entryDy=0;" edge="1" parent="1" source="B3fBioXZxfCSzkXcN0d9-5" target="B3fBioXZxfCSzkXcN0d9-7">
          <mxGeometry relative="1" as="geometry" />
        </mxCell>
        <mxCell id="B3fBioXZxfCSzkXcN0d9-5" value="代码检出" style="rounded=1;whiteSpace=wrap;html=1;" vertex="1" parent="1">
          <mxGeometry x="320" y="240" width="120" height="60" as="geometry" />
        </mxCell>
        <mxCell id="B3fBioXZxfCSzkXcN0d9-10" style="edgeStyle=orthogonalEdgeStyle;rounded=0;orthogonalLoop=1;jettySize=auto;html=1;exitX=1;exitY=0.5;exitDx=0;exitDy=0;entryX=0;entryY=0.5;entryDx=0;entryDy=0;" edge="1" parent="1" source="B3fBioXZxfCSzkXcN0d9-7" target="B3fBioXZxfCSzkXcN0d9-9">
          <mxGeometry relative="1" as="geometry" />
        </mxCell>
        <mxCell id="B3fBioXZxfCSzkXcN0d9-7" value="编译构建" style="rounded=1;whiteSpace=wrap;html=1;" vertex="1" parent="1">
          <mxGeometry x="500" y="240" width="120" height="60" as="geometry" />
        </mxCell>
        <mxCell id="B3fBioXZxfCSzkXcN0d9-21" style="edgeStyle=orthogonalEdgeStyle;rounded=0;orthogonalLoop=1;jettySize=auto;html=1;exitX=1;exitY=0.5;exitDx=0;exitDy=0;entryX=0;entryY=0.5;entryDx=0;entryDy=0;" edge="1" parent="1" source="B3fBioXZxfCSzkXcN0d9-9" target="B3fBioXZxfCSzkXcN0d9-12">
          <mxGeometry relative="1" as="geometry" />
        </mxCell>
        <mxCell id="B3fBioXZxfCSzkXcN0d9-9" value="Dockerfile" style="rounded=1;whiteSpace=wrap;html=1;" vertex="1" parent="1">
          <mxGeometry x="710" y="240" width="120" height="60" as="geometry" />
        </mxCell>
        <mxCell id="B3fBioXZxfCSzkXcN0d9-11" value="war包/tar包等" style="text;html=1;strokeColor=none;fillColor=none;align=center;verticalAlign=middle;whiteSpace=wrap;rounded=0;" vertex="1" parent="1">
          <mxGeometry x="640" y="240" width="60" height="30" as="geometry" />
        </mxCell>
        <mxCell id="B3fBioXZxfCSzkXcN0d9-22" style="edgeStyle=orthogonalEdgeStyle;rounded=0;orthogonalLoop=1;jettySize=auto;html=1;exitX=0.5;exitY=1;exitDx=0;exitDy=0;entryX=1;entryY=0.5;entryDx=0;entryDy=0;" edge="1" parent="1" source="B3fBioXZxfCSzkXcN0d9-12" target="B3fBioXZxfCSzkXcN0d9-15">
          <mxGeometry relative="1" as="geometry" />
        </mxCell>
        <mxCell id="B3fBioXZxfCSzkXcN0d9-12" value="Docker Images" style="rounded=1;whiteSpace=wrap;html=1;" vertex="1" parent="1">
          <mxGeometry x="890" y="240" width="120" height="60" as="geometry" />
        </mxCell>
        <mxCell id="B3fBioXZxfCSzkXcN0d9-20" style="edgeStyle=orthogonalEdgeStyle;rounded=0;orthogonalLoop=1;jettySize=auto;html=1;exitX=0.5;exitY=0;exitDx=0;exitDy=0;" edge="1" parent="1" source="B3fBioXZxfCSzkXcN0d9-13" target="B3fBioXZxfCSzkXcN0d9-9">
          <mxGeometry relative="1" as="geometry" />
        </mxCell>
        <mxCell id="B3fBioXZxfCSzkXcN0d9-13" value="基础镜像" style="rounded=1;whiteSpace=wrap;html=1;" vertex="1" parent="1">
          <mxGeometry x="710" y="350" width="120" height="60" as="geometry" />
        </mxCell>
        <mxCell id="B3fBioXZxfCSzkXcN0d9-19" style="edgeStyle=orthogonalEdgeStyle;rounded=0;orthogonalLoop=1;jettySize=auto;html=1;exitX=0.5;exitY=0;exitDx=0;exitDy=0;entryX=0.5;entryY=1;entryDx=0;entryDy=0;" edge="1" parent="1" source="B3fBioXZxfCSzkXcN0d9-15" target="B3fBioXZxfCSzkXcN0d9-13">
          <mxGeometry relative="1" as="geometry" />
        </mxCell>
        <mxCell id="B3fBioXZxfCSzkXcN0d9-26" style="edgeStyle=orthogonalEdgeStyle;rounded=0;orthogonalLoop=1;jettySize=auto;html=1;exitX=0.5;exitY=1;exitDx=0;exitDy=0;entryX=0.5;entryY=0;entryDx=0;entryDy=0;fontSize=20;" edge="1" parent="1" source="B3fBioXZxfCSzkXcN0d9-15" target="B3fBioXZxfCSzkXcN0d9-25">
          <mxGeometry relative="1" as="geometry" />
        </mxCell>
        <mxCell id="B3fBioXZxfCSzkXcN0d9-15" value="TCR镜像仓库/Coding镜仓" style="rounded=1;whiteSpace=wrap;html=1;" vertex="1" parent="1">
          <mxGeometry x="710" y="460" width="120" height="60" as="geometry" />
        </mxCell>
        <mxCell id="B3fBioXZxfCSzkXcN0d9-23" value="" style="endArrow=none;dashed=1;html=1;dashPattern=1 3;strokeWidth=2;rounded=0;" edge="1" parent="1">
          <mxGeometry width="50" height="50" relative="1" as="geometry">
            <mxPoint x="290" y="530" as="sourcePoint" />
            <mxPoint x="290" y="530" as="targetPoint" />
            <Array as="points">
              <mxPoint x="290" y="220" />
              <mxPoint x="1050" y="220" />
              <mxPoint x="1050" y="530" />
            </Array>
          </mxGeometry>
        </mxCell>
        <mxCell id="B3fBioXZxfCSzkXcN0d9-24" value="&lt;font style=&quot;font-size: 20px&quot;&gt;CI流程&lt;/font&gt;" style="text;html=1;strokeColor=none;fillColor=none;align=center;verticalAlign=middle;whiteSpace=wrap;rounded=0;" vertex="1" parent="1">
          <mxGeometry x="600" y="170" width="140" height="60" as="geometry" />
        </mxCell>
        <mxCell id="B3fBioXZxfCSzkXcN0d9-29" style="edgeStyle=orthogonalEdgeStyle;rounded=0;orthogonalLoop=1;jettySize=auto;html=1;exitX=1;exitY=0.5;exitDx=0;exitDy=0;entryX=0;entryY=0.5;entryDx=0;entryDy=0;fontSize=20;" edge="1" parent="1" source="B3fBioXZxfCSzkXcN0d9-25" target="B3fBioXZxfCSzkXcN0d9-27">
          <mxGeometry relative="1" as="geometry" />
        </mxCell>
        <mxCell id="B3fBioXZxfCSzkXcN0d9-25" value="发布单" style="rounded=1;whiteSpace=wrap;html=1;" vertex="1" parent="1">
          <mxGeometry x="320" y="570" width="120" height="60" as="geometry" />
        </mxCell>
        <mxCell id="B3fBioXZxfCSzkXcN0d9-32" style="edgeStyle=orthogonalEdgeStyle;rounded=0;orthogonalLoop=1;jettySize=auto;html=1;exitX=1;exitY=0.5;exitDx=0;exitDy=0;fontSize=20;" edge="1" parent="1" source="B3fBioXZxfCSzkXcN0d9-27" target="B3fBioXZxfCSzkXcN0d9-31">
          <mxGeometry relative="1" as="geometry" />
        </mxCell>
        <mxCell id="B3fBioXZxfCSzkXcN0d9-34" style="edgeStyle=orthogonalEdgeStyle;rounded=0;orthogonalLoop=1;jettySize=auto;html=1;exitX=1;exitY=0.5;exitDx=0;exitDy=0;entryX=0;entryY=0.5;entryDx=0;entryDy=0;fontSize=20;" edge="1" parent="1" source="B3fBioXZxfCSzkXcN0d9-27" target="B3fBioXZxfCSzkXcN0d9-33">
          <mxGeometry relative="1" as="geometry" />
        </mxCell>
        <mxCell id="B3fBioXZxfCSzkXcN0d9-27" value="负载方式/Deploment" style="rounded=1;whiteSpace=wrap;html=1;" vertex="1" parent="1">
          <mxGeometry x="510" y="570" width="140" height="60" as="geometry" />
        </mxCell>
        <mxCell id="B3fBioXZxfCSzkXcN0d9-37" style="edgeStyle=orthogonalEdgeStyle;rounded=0;orthogonalLoop=1;jettySize=auto;html=1;exitX=1;exitY=0.5;exitDx=0;exitDy=0;entryX=0;entryY=0.5;entryDx=0;entryDy=0;fontSize=20;" edge="1" parent="1" source="B3fBioXZxfCSzkXcN0d9-31" target="B3fBioXZxfCSzkXcN0d9-36">
          <mxGeometry relative="1" as="geometry" />
        </mxCell>
        <mxCell id="B3fBioXZxfCSzkXcN0d9-31" value="更新" style="rounded=1;whiteSpace=wrap;html=1;" vertex="1" parent="1">
          <mxGeometry x="750" y="570" width="120" height="60" as="geometry" />
        </mxCell>
        <mxCell id="B3fBioXZxfCSzkXcN0d9-38" style="edgeStyle=orthogonalEdgeStyle;rounded=0;orthogonalLoop=1;jettySize=auto;html=1;exitX=1;exitY=0.5;exitDx=0;exitDy=0;entryX=0;entryY=0.5;entryDx=0;entryDy=0;fontSize=20;" edge="1" parent="1" source="B3fBioXZxfCSzkXcN0d9-33" target="B3fBioXZxfCSzkXcN0d9-36">
          <mxGeometry relative="1" as="geometry" />
        </mxCell>
        <mxCell id="B3fBioXZxfCSzkXcN0d9-33" value="创建" style="rounded=1;whiteSpace=wrap;html=1;" vertex="1" parent="1">
          <mxGeometry x="750" y="670" width="120" height="60" as="geometry" />
        </mxCell>
        <mxCell id="B3fBioXZxfCSzkXcN0d9-35" value="YAML" style="text;html=1;strokeColor=none;fillColor=none;align=center;verticalAlign=middle;whiteSpace=wrap;rounded=0;fontSize=20;" vertex="1" parent="1">
          <mxGeometry x="670" y="570" width="60" height="30" as="geometry" />
        </mxCell>
        <mxCell id="B3fBioXZxfCSzkXcN0d9-36" value="测试" style="rounded=1;whiteSpace=wrap;html=1;" vertex="1" parent="1">
          <mxGeometry x="920" y="620" width="120" height="60" as="geometry" />
        </mxCell>
        <mxCell id="B3fBioXZxfCSzkXcN0d9-39" value="" style="endArrow=none;dashed=1;html=1;dashPattern=1 3;strokeWidth=2;rounded=0;" edge="1" parent="1">
          <mxGeometry width="50" height="50" relative="1" as="geometry">
            <mxPoint x="290" y="860" as="sourcePoint" />
            <mxPoint x="290" y="860" as="targetPoint" />
            <Array as="points">
              <mxPoint x="290" y="550" />
              <mxPoint x="1050" y="550" />
              <mxPoint x="1050" y="860" />
            </Array>
          </mxGeometry>
        </mxCell>
        <mxCell id="B3fBioXZxfCSzkXcN0d9-40" value="CD流程" style="text;html=1;strokeColor=none;fillColor=none;align=center;verticalAlign=middle;whiteSpace=wrap;rounded=0;fontSize=20;" vertex="1" parent="1">
          <mxGeometry x="580" y="700" width="90" height="30" as="geometry" />
        </mxCell>
      </root>
    </mxGraphModel>
  </diagram>
</mxfile>
